<svg version="1.1" xmlns="http://www.w3.org/2000/svg" viewBox="0 0 1116.4858791452843 488.54222848304846" width="1116.4858791452843" height="488.54222848304846">
  <!-- svg-source:excalidraw -->
  
  <defs>
    <style class="style-fonts">
      @font-face {
        font-family: "Virgil";
        src: url("https://excalidraw.com/Virgil.woff2");
      }
      @font-face {
        font-family: "Cascadia";
        src: url("https://excalidraw.com/Cascadia.woff2");
      }
      @font-face {
        font-family: "Assistant";
        src: url("https://excalidraw.com/Assistant-Regular.woff2");
      }
    </style>
    
  </defs>
  <g stroke-linecap="round" transform="translate(403.16080895480445 31.599999941135934) rotate(0 240.68942406779388 212.67111419520495)"><path d="M0 0 C166.07 0, 332.15 0, 481.38 0 M0 0 C133.43 0, 266.86 0, 481.38 0 M481.38 0 C481.38 96.57, 481.38 193.14, 481.38 425.34 M481.38 0 C481.38 149.08, 481.38 298.16, 481.38 425.34 M481.38 425.34 C360.99 425.34, 240.61 425.34, 0 425.34 M481.38 425.34 C369.03 425.34, 256.69 425.34, 0 425.34 M0 425.34 C0 283.18, 0 141.02, 0 0 M0 425.34 C0 282.46, 0 139.57, 0 0" stroke="#1e1e1e" stroke-width="4" fill="none"></path></g><g stroke-linecap="round" transform="translate(403.000619045195 90.05559533154587) rotate(0 240.76951902259862 26.600000000000023)"><path d="M0 0 L481.54 0 L481.54 53.2 L0 53.2" stroke="none" stroke-width="0" fill="#b2f2bb"></path><path d="M0 0 C102.69 0, 205.38 0, 481.54 0 M0 0 C121.81 0, 243.63 0, 481.54 0 M481.54 0 C481.54 10.66, 481.54 21.31, 481.54 53.2 M481.54 0 C481.54 13.19, 481.54 26.39, 481.54 53.2 M481.54 53.2 C338.14 53.2, 194.74 53.2, 0 53.2 M481.54 53.2 C357.06 53.2, 232.58 53.2, 0 53.2 M0 53.2 C0 37.48, 0 21.76, 0 0 M0 53.2 C0 39.41, 0 25.62, 0 0" stroke="#1e1e1e" stroke-width="2" fill="none"></path></g><g transform="translate(504.3170130677936 99.85559533154583) rotate(0 139.453125 16.80000000000001)"><text x="139.453125" y="0" font-family="Cascadia, Segoe UI Emoji" font-size="28px" fill="#1e1e1e" text-anchor="middle" style="white-space: pre;" direction="ltr" dominant-baseline="text-before-edge">adresse de retour</text></g><g stroke-linecap="round" transform="translate(403.1608090000009 143.25559531638146) rotate(0 240.68942404519566 48.5)"><path d="M0 0 L481.38 0 L481.38 97 L0 97" stroke="none" stroke-width="0" fill="#b2f2bb"></path><path d="M0 0 C141.06 0, 282.12 0, 481.38 0 M0 0 C127.59 0, 255.17 0, 481.38 0 M481.38 0 C481.38 26.02, 481.38 52.03, 481.38 97 M481.38 0 C481.38 26.36, 481.38 52.71, 481.38 97 M481.38 97 C292.59 97, 103.81 97, 0 97 M481.38 97 C367.39 97, 253.41 97, 0 97 M0 97 C0 71.25, 0 45.49, 0 0 M0 97 C0 77.37, 0 57.73, 0 0" stroke="#1e1e1e" stroke-width="2" fill="none"></path></g><g transform="translate(455.17835804519564 148.25559531638146) rotate(0 188.671875 16.80000000000001)"><text x="188.671875" y="0" font-family="Cascadia, Segoe UI Emoji" font-size="28px" fill="#1e1e1e" text-anchor="middle" style="white-space: pre;" direction="ltr" dominant-baseline="text-before-edge">ancienne valeur de %rbp</text></g><g stroke-linecap="round" transform="translate(403.1608090000009 195.9522179830484) rotate(0 240.68942405394864 93.21223667424869)"><path d="M0 0 L481.38 0 L481.38 186.42 L0 186.42" stroke="none" stroke-width="0" fill="#eaddd7"></path><path d="M0 0 C116.16 0, 232.31 0, 481.38 0 M0 0 C133.33 0, 266.66 0, 481.38 0 M481.38 0 C481.38 46.95, 481.38 93.91, 481.38 186.42 M481.38 0 C481.38 61.08, 481.38 122.16, 481.38 186.42 M481.38 186.42 C347.78 186.42, 214.17 186.42, 0 186.42 M481.38 186.42 C340.02 186.42, 198.67 186.42, 0 186.42 M0 186.42 C0 121.08, 0 55.73, 0 0 M0 186.42 C0 115.73, 0 45.03, 0 0" stroke="#1e1e1e" stroke-width="2" fill="none"></path></g><g transform="translate(411.81898305395043 204.57669133154582) rotate(0 232.03125 86.39999999999998)"><text x="232.03125" y="0" font-family="Cascadia, Segoe UI Emoji" font-size="36px" fill="#343a40" text-anchor="middle" style="white-space: pre;" direction="ltr" dominant-baseline="text-before-edge">0x40302010</text><text x="232.03125" y="43.199999999999996" font-family="Cascadia, Segoe UI Emoji" font-size="36px" fill="#343a40" text-anchor="middle" style="white-space: pre;" direction="ltr" dominant-baseline="text-before-edge">EEEEEEEEEEEEEEEEEEEEEE</text><text x="232.03125" y="86.39999999999999" font-family="Cascadia, Segoe UI Emoji" font-size="36px" fill="#343a40" text-anchor="middle" style="white-space: pre;" direction="ltr" dominant-baseline="text-before-edge">EEEEEEEEEEEEEEEEEEEEEE</text><text x="232.03125" y="129.6" font-family="Cascadia, Segoe UI Emoji" font-size="36px" fill="#343a40" text-anchor="middle" style="white-space: pre;" direction="ltr" dominant-baseline="text-before-edge">EEEEEEEEEEEEEEEEEEEE</text></g><g stroke-linecap="round"><g transform="translate(402.45177103330025 195.24704767611684) rotate(0 -35.673257522862514 -0.06600870760013322)"><path d="M0 0 C-22.04 -0.04, -44.07 -0.08, -71.35 -0.13 M0 0 C-25.58 -0.05, -51.15 -0.09, -71.35 -0.13" stroke="#2f9e44" stroke-width="2" fill="none"></path></g><g transform="translate(402.45177103330025 195.24704767611684) rotate(0 -35.673257522862514 -0.06600870760013322)"><path d="M0 0 L-13.61 6.31 L-13.58 -6.36 L0 0" stroke="none" stroke-width="0" fill="#2f9e44" fill-rule="evenodd"></path><path d="M0 0 C-4.2 1.95, -8.41 3.9, -13.61 6.31 M0 0 C-4.88 2.26, -9.76 4.53, -13.61 6.31 M-13.61 6.31 C-13.6 1.3, -13.59 -3.71, -13.58 -6.36 M-13.61 6.31 C-13.6 2.23, -13.59 -1.85, -13.58 -6.36 M-13.58 -6.36 C-9.8 -4.59, -6.02 -2.82, 0 0 M-13.58 -6.36 C-9.36 -4.38, -5.13 -2.41, 0 0 M0 0 C0 0, 0 0, 0 0 M0 0 C0 0, 0 0, 0 0" stroke="#2f9e44" stroke-width="2" fill="none"></path></g></g><mask></mask><g stroke-linecap="round"><g transform="translate(402.0006186199025 381.6378038924379) rotate(0 -33.063724219577125 -0.5809668336706295)"><path d="M0 0 C-20.64 -0.36, -41.27 -0.73, -66.13 -1.16 M0 0 C-23.69 -0.42, -47.39 -0.83, -66.13 -1.16" stroke="#f08c00" stroke-width="2" fill="none"></path></g><g transform="translate(402.0006186199025 381.6378038924379) rotate(0 -33.063724219577125 -0.5809668336706295)"><path d="M0 0 L-13.7 6.1 L-13.48 -6.58 L0 0" stroke="none" stroke-width="0" fill="#f08c00" fill-rule="evenodd"></path><path d="M0 0 C-4.28 1.9, -8.55 3.81, -13.7 6.1 M0 0 C-4.91 2.19, -9.82 4.37, -13.7 6.1 M-13.7 6.1 C-13.62 1.58, -13.55 -2.94, -13.48 -6.58 M-13.7 6.1 C-13.65 3.05, -13.6 0, -13.48 -6.58 M-13.48 -6.58 C-10.08 -4.92, -6.67 -3.25, 0 0 M-13.48 -6.58 C-8.46 -4.13, -3.44 -1.68, 0 0 M0 0 C0 0, 0 0, 0 0 M0 0 C0 0, 0 0, 0 0" stroke="#f08c00" stroke-width="2" fill="none"></path></g></g><mask></mask><g transform="translate(559.350182999995 415.8131934830484) rotate(0 0.00004999999964638846 0.00004999999998744897)" stroke="none"><path fill="#1e1e1e" d="M 3.14,-3.14 Q 3.14,-3.14 3.55,-2.55 3.97,-1.97 4.18,-1.28 4.40,-0.59 4.38,0.11 4.36,0.83 4.11,1.51 3.86,2.18 3.41,2.74 2.96,3.30 2.36,3.69 1.75,4.07 1.05,4.25 0.36,4.42 -0.35,4.36 -1.07,4.30 -1.73,4.02 -2.39,3.74 -2.92,3.26 -3.46,2.78 -3.81,2.15 -4.16,1.53 -4.30,0.82 -4.43,0.11 -4.34,-0.59 -4.24,-1.30 -3.92,-1.94 -3.60,-2.59 -3.09,-3.09 -2.59,-3.60 -1.94,-3.92 -1.30,-4.24 -0.59,-4.34 0.12,-4.43 0.82,-4.30 1.53,-4.16 2.15,-3.81 2.78,-3.46 3.26,-2.92 3.74,-2.39 4.02,-1.73 4.31,-1.07 4.36,-0.35 4.42,0.36 4.25,1.05 4.07,1.75 3.69,2.36 3.30,2.96 2.74,3.41 2.18,3.86 1.51,4.11 0.83,4.36 0.11,4.38 -0.60,4.40 -1.28,4.18 -1.97,3.97 -2.55,3.55 -3.14,3.13 -3.14,3.14 -3.14,3.14 -3.47,2.71 -3.80,2.29 -4.02,1.80 -4.24,1.32 -4.33,0.79 -4.43,0.26 -4.40,-0.26 -4.36,-0.80 -4.20,-1.31 -4.04,-1.82 -3.77,-2.28 -3.49,-2.73 -3.11,-3.11 -2.73,-3.49 -2.28,-3.77 -1.82,-4.05 -1.31,-4.20 -0.80,-4.36 -0.26,-4.40 0.26,-4.43 0.79,-4.33 1.32,-4.24 1.80,-4.02 2.29,-3.80 2.71,-3.47 3.14,-3.14 3.14,-3.14 L 3.14,-3.14 Z"></path></g><g transform="translate(647.350182999995 414.8131934830484) rotate(0 0.00004999999964638846 0.00004999999998744897)" stroke="none"><path fill="#1e1e1e" d="M 3.14,-3.14 Q 3.14,-3.14 3.55,-2.55 3.97,-1.97 4.18,-1.28 4.40,-0.59 4.38,0.11 4.36,0.83 4.11,1.51 3.86,2.18 3.41,2.74 2.96,3.30 2.36,3.69 1.75,4.07 1.05,4.25 0.36,4.42 -0.35,4.36 -1.07,4.30 -1.73,4.02 -2.39,3.74 -2.92,3.26 -3.46,2.78 -3.81,2.15 -4.16,1.53 -4.30,0.82 -4.43,0.11 -4.34,-0.59 -4.24,-1.30 -3.92,-1.94 -3.60,-2.59 -3.09,-3.09 -2.59,-3.60 -1.94,-3.92 -1.30,-4.24 -0.59,-4.34 0.12,-4.43 0.82,-4.30 1.53,-4.16 2.15,-3.81 2.78,-3.46 3.26,-2.92 3.74,-2.39 4.02,-1.73 4.31,-1.07 4.36,-0.35 4.42,0.36 4.25,1.05 4.07,1.75 3.69,2.36 3.30,2.96 2.74,3.41 2.18,3.86 1.51,4.11 0.83,4.36 0.11,4.38 -0.60,4.40 -1.28,4.18 -1.97,3.97 -2.55,3.55 -3.14,3.13 -3.14,3.14 -3.14,3.14 -3.47,2.71 -3.80,2.29 -4.02,1.80 -4.24,1.32 -4.33,0.79 -4.43,0.26 -4.40,-0.26 -4.36,-0.80 -4.20,-1.31 -4.04,-1.82 -3.77,-2.28 -3.49,-2.73 -3.11,-3.11 -2.73,-3.49 -2.28,-3.77 -1.82,-4.05 -1.31,-4.20 -0.80,-4.36 -0.26,-4.40 0.26,-4.43 0.79,-4.33 1.32,-4.24 1.80,-4.02 2.29,-3.80 2.71,-3.47 3.14,-3.14 3.14,-3.14 L 3.14,-3.14 Z"></path></g><g transform="translate(728.350182999995 413.8131934830484) rotate(0 0.00004999999964638846 0.00004999999998744897)" stroke="none"><path fill="#1e1e1e" d="M 3.14,-3.14 Q 3.14,-3.14 3.55,-2.55 3.97,-1.97 4.18,-1.28 4.40,-0.59 4.38,0.11 4.36,0.83 4.11,1.51 3.86,2.18 3.41,2.74 2.96,3.30 2.36,3.69 1.75,4.07 1.05,4.25 0.36,4.42 -0.35,4.36 -1.07,4.30 -1.73,4.02 -2.39,3.74 -2.92,3.26 -3.46,2.78 -3.81,2.15 -4.16,1.53 -4.30,0.82 -4.43,0.11 -4.34,-0.59 -4.24,-1.30 -3.92,-1.94 -3.60,-2.59 -3.09,-3.09 -2.59,-3.60 -1.94,-3.92 -1.30,-4.24 -0.59,-4.34 0.12,-4.43 0.82,-4.30 1.53,-4.16 2.15,-3.81 2.78,-3.46 3.26,-2.92 3.74,-2.39 4.02,-1.73 4.31,-1.07 4.36,-0.35 4.42,0.36 4.25,1.05 4.07,1.75 3.69,2.36 3.30,2.96 2.74,3.41 2.18,3.86 1.51,4.11 0.83,4.36 0.11,4.38 -0.60,4.40 -1.28,4.18 -1.97,3.97 -2.55,3.55 -3.14,3.13 -3.14,3.14 -3.14,3.14 -3.47,2.71 -3.80,2.29 -4.02,1.80 -4.24,1.32 -4.33,0.79 -4.43,0.26 -4.40,-0.26 -4.36,-0.80 -4.20,-1.31 -4.04,-1.82 -3.77,-2.28 -3.49,-2.73 -3.11,-3.11 -2.73,-3.49 -2.28,-3.77 -1.82,-4.05 -1.31,-4.20 -0.80,-4.36 -0.26,-4.40 0.26,-4.43 0.79,-4.33 1.32,-4.24 1.80,-4.02 2.29,-3.80 2.71,-3.47 3.14,-3.14 3.14,-3.14 L 3.14,-3.14 Z"></path></g><g transform="translate(10 435.3422284830484) rotate(0 189.89999389648438 21.600000000000023)"><text x="0" y="0" font-family="Cascadia, Segoe UI Emoji" font-size="36px" fill="#1e1e1e" text-anchor="start" style="white-space: pre;" direction="ltr" dominant-baseline="text-before-edge">0x0000000000000000</text></g><g transform="translate(10.000000281159373 10) rotate(0 189.84375 21.600000000000023)"><text x="0" y="0" font-family="Cascadia, Segoe UI Emoji" font-size="36px" fill="#1e1e1e" text-anchor="start" style="white-space: pre;" direction="ltr" dominant-baseline="text-before-edge">0xFFFFFFFFFFFFFFFF</text></g><g transform="translate(235.99415100000078 174.45221848304845) rotate(0 42.20000076293945 21.600000000000023)"><text x="0" y="0" font-family="Cascadia, Segoe UI Emoji" font-size="36px" fill="#2f9e44" text-anchor="start" style="white-space: pre;" direction="ltr" dominant-baseline="text-before-edge">%rbp</text></g><g transform="translate(235.99415123705876 349.1300144830485) rotate(0 42.20000076293945 21.600000000000023)"><text x="0" y="0" font-family="Cascadia, Segoe UI Emoji" font-size="36px" fill="#f08c00" text-anchor="start" style="white-space: pre;" direction="ltr" dominant-baseline="text-before-edge">%rsp</text></g><g stroke-linecap="round"><g transform="translate(402.56023637163344 142.45602510804645) rotate(0 -26.733043096504844 -0.043083239695988595)"><path d="M0 0 C-11.68 -0.02, -23.37 -0.04, -53.47 -0.09 M0 0 C-17.23 -0.03, -34.45 -0.06, -53.47 -0.09" stroke="#1e1e1e" stroke-width="2" fill="none"></path></g><g transform="translate(402.56023637163344 142.45602510804645) rotate(0 -26.733043096504844 -0.043083239695988595)"><path d="M0 0 L-13.6 6.32 L-13.58 -6.36 L0 0" stroke="none" stroke-width="0" fill="#1e1e1e" fill-rule="evenodd"></path><path d="M0 0 C-2.97 1.38, -5.95 2.76, -13.6 6.32 M0 0 C-4.38 2.04, -8.77 4.07, -13.6 6.32 M-13.6 6.32 C-13.6 2.67, -13.59 -0.98, -13.58 -6.36 M-13.6 6.32 C-13.6 2.73, -13.59 -0.86, -13.58 -6.36 M-13.58 -6.36 C-8.27 -3.87, -2.95 -1.38, 0 0 M-13.58 -6.36 C-8.38 -3.92, -3.17 -1.48, 0 0 M0 0 C0 0, 0 0, 0 0 M0 0 C0 0, 0 0, 0 0" stroke="#1e1e1e" stroke-width="2" fill="none"></path></g></g><mask></mask><g transform="translate(214.89415323037974 120.65559548304839) rotate(0 63.29999923706055 21.600000000000023)"><text x="0" y="0" font-family="Cascadia, Segoe UI Emoji" font-size="36px" fill="#1e1e1e" text-anchor="start" style="white-space: pre;" direction="ltr" dominant-baseline="text-before-edge">%rbp+8</text></g><g transform="translate(559.3501830453988 63.1486981060325) rotate(0 0.00004999999964638846 0.00004999999998744897)" stroke="none"><path fill="#1e1e1e" d="M 3.14,-3.14 Q 3.14,-3.14 3.55,-2.55 3.97,-1.97 4.18,-1.28 4.40,-0.59 4.38,0.11 4.36,0.83 4.11,1.51 3.86,2.18 3.41,2.74 2.96,3.30 2.36,3.69 1.75,4.07 1.05,4.25 0.36,4.42 -0.35,4.36 -1.07,4.30 -1.73,4.02 -2.39,3.74 -2.92,3.26 -3.46,2.78 -3.81,2.15 -4.16,1.53 -4.30,0.82 -4.43,0.11 -4.34,-0.59 -4.24,-1.30 -3.92,-1.94 -3.60,-2.59 -3.09,-3.09 -2.59,-3.60 -1.94,-3.92 -1.30,-4.24 -0.59,-4.34 0.12,-4.43 0.82,-4.30 1.53,-4.16 2.15,-3.81 2.78,-3.46 3.26,-2.92 3.74,-2.39 4.02,-1.73 4.31,-1.07 4.36,-0.35 4.42,0.36 4.25,1.05 4.07,1.75 3.69,2.36 3.30,2.96 2.74,3.41 2.18,3.86 1.51,4.11 0.83,4.36 0.11,4.38 -0.60,4.40 -1.28,4.18 -1.97,3.97 -2.55,3.55 -3.14,3.13 -3.14,3.14 -3.14,3.14 -3.47,2.71 -3.80,2.29 -4.02,1.80 -4.24,1.32 -4.33,0.79 -4.43,0.26 -4.40,-0.26 -4.36,-0.80 -4.20,-1.31 -4.04,-1.82 -3.77,-2.28 -3.49,-2.73 -3.11,-3.11 -2.73,-3.49 -2.28,-3.77 -1.82,-4.05 -1.31,-4.20 -0.80,-4.36 -0.26,-4.40 0.26,-4.43 0.79,-4.33 1.32,-4.24 1.80,-4.02 2.29,-3.80 2.71,-3.47 3.14,-3.14 3.14,-3.14 L 3.14,-3.14 Z"></path></g><g transform="translate(647.3501830453988 62.1486981060325) rotate(0 0.00004999999964638846 0.00004999999998744897)" stroke="none"><path fill="#1e1e1e" d="M 3.14,-3.14 Q 3.14,-3.14 3.55,-2.55 3.97,-1.97 4.18,-1.28 4.40,-0.59 4.38,0.11 4.36,0.83 4.11,1.51 3.86,2.18 3.41,2.74 2.96,3.30 2.36,3.69 1.75,4.07 1.05,4.25 0.36,4.42 -0.35,4.36 -1.07,4.30 -1.73,4.02 -2.39,3.74 -2.92,3.26 -3.46,2.78 -3.81,2.15 -4.16,1.53 -4.30,0.82 -4.43,0.11 -4.34,-0.59 -4.24,-1.30 -3.92,-1.94 -3.60,-2.59 -3.09,-3.09 -2.59,-3.60 -1.94,-3.92 -1.30,-4.24 -0.59,-4.34 0.12,-4.43 0.82,-4.30 1.53,-4.16 2.15,-3.81 2.78,-3.46 3.26,-2.92 3.74,-2.39 4.02,-1.73 4.31,-1.07 4.36,-0.35 4.42,0.36 4.25,1.05 4.07,1.75 3.69,2.36 3.30,2.96 2.74,3.41 2.18,3.86 1.51,4.11 0.83,4.36 0.11,4.38 -0.60,4.40 -1.28,4.18 -1.97,3.97 -2.55,3.55 -3.14,3.13 -3.14,3.14 -3.14,3.14 -3.47,2.71 -3.80,2.29 -4.02,1.80 -4.24,1.32 -4.33,0.79 -4.43,0.26 -4.40,-0.26 -4.36,-0.80 -4.20,-1.31 -4.04,-1.82 -3.77,-2.28 -3.49,-2.73 -3.11,-3.11 -2.73,-3.49 -2.28,-3.77 -1.82,-4.05 -1.31,-4.20 -0.80,-4.36 -0.26,-4.40 0.26,-4.43 0.79,-4.33 1.32,-4.24 1.80,-4.02 2.29,-3.80 2.71,-3.47 3.14,-3.14 3.14,-3.14 L 3.14,-3.14 Z"></path></g><g transform="translate(728.3501830453988 61.1486981060325) rotate(0 0.00004999999964638846 0.00004999999998744897)" stroke="none"><path fill="#1e1e1e" d="M 3.14,-3.14 Q 3.14,-3.14 3.55,-2.55 3.97,-1.97 4.18,-1.28 4.40,-0.59 4.38,0.11 4.36,0.83 4.11,1.51 3.86,2.18 3.41,2.74 2.96,3.30 2.36,3.69 1.75,4.07 1.05,4.25 0.36,4.42 -0.35,4.36 -1.07,4.30 -1.73,4.02 -2.39,3.74 -2.92,3.26 -3.46,2.78 -3.81,2.15 -4.16,1.53 -4.30,0.82 -4.43,0.11 -4.34,-0.59 -4.24,-1.30 -3.92,-1.94 -3.60,-2.59 -3.09,-3.09 -2.59,-3.60 -1.94,-3.92 -1.30,-4.24 -0.59,-4.34 0.12,-4.43 0.82,-4.30 1.53,-4.16 2.15,-3.81 2.78,-3.46 3.26,-2.92 3.74,-2.39 4.02,-1.73 4.31,-1.07 4.36,-0.35 4.42,0.36 4.25,1.05 4.07,1.75 3.69,2.36 3.30,2.96 2.74,3.41 2.18,3.86 1.51,4.11 0.83,4.36 0.11,4.38 -0.60,4.40 -1.28,4.18 -1.97,3.97 -2.55,3.55 -3.14,3.13 -3.14,3.14 -3.14,3.14 -3.47,2.71 -3.80,2.29 -4.02,1.80 -4.24,1.32 -4.33,0.79 -4.43,0.26 -4.40,-0.26 -4.36,-0.80 -4.20,-1.31 -4.04,-1.82 -3.77,-2.28 -3.49,-2.73 -3.11,-3.11 -2.73,-3.49 -2.28,-3.77 -1.82,-4.05 -1.31,-4.20 -0.80,-4.36 -0.26,-4.40 0.26,-4.43 0.79,-4.33 1.32,-4.24 1.80,-4.02 2.29,-3.80 2.71,-3.47 3.14,-3.14 3.14,-3.14 L 3.14,-3.14 Z"></path></g><g stroke-linecap="round"><g transform="translate(404.06181698759974 247.70972982865067) rotate(0 239.21851024698663 0)"><path d="M0 0 C181.82 0, 363.65 0, 478.44 0" stroke="#1e1e1e" stroke-width="2.5" fill="none" stroke-dasharray="8 10"></path></g></g><mask></mask><g transform="translate(895.5483787840876 201.07111443050815) rotate(0 73.828125 21.600000000000023)"><text x="0" y="0" font-family="Cascadia, Segoe UI Emoji" font-size="36px" fill="#1e1e1e" text-anchor="start" style="white-space: pre;" direction="ltr" dominant-baseline="text-before-edge">changme</text></g><g transform="translate(895.5483791452843 289.16445412008545) rotate(0 105.46875 21.600000000000023)"><text x="0" y="0" font-family="Cascadia, Segoe UI Emoji" font-size="36px" fill="#1e1e1e" text-anchor="start" style="white-space: pre;" direction="ltr" dominant-baseline="text-before-edge">buffer[64]</text></g></svg>