<svg version="1.1" xmlns="http://www.w3.org/2000/svg" viewBox="0 0 1085.9799374892164 490.3688508261522" width="3257.939812467649" height="1471.1065524784567">
  <!-- svg-source:excalidraw -->
  
  <defs>
    <style class="style-fonts">
      @font-face {
        font-family: "Virgil";
        src: url("https://excalidraw.com/Virgil.woff2");
      }
      @font-face {
        font-family: "Cascadia";
        src: url("https://excalidraw.com/Cascadia.woff2");
      }
      @font-face {
        font-family: "Assistant";
        src: url("https://excalidraw.com/Assistant-Regular.woff2");
      }
    </style>
    
  </defs>
  <g stroke-linecap="round" transform="translate(283.43991435786165 228.9521361200657) rotate(0 136.24693593704183 89.48763247935887)"><path d="M0 0 L272.49 0 L272.49 178.98 L0 178.98" stroke="none" stroke-width="0" fill="#f8f1ee"></path><path d="M0 0 C103.83 0, 207.66 0, 272.49 0 M0 0 C103.93 0, 207.86 0, 272.49 0 M272.49 0 C272.49 63.71, 272.49 127.43, 272.49 178.98 M272.49 0 C272.49 71.37, 272.49 142.74, 272.49 178.98 M272.49 178.98 C168.65 178.98, 64.8 178.98, 0 178.98 M272.49 178.98 C197.52 178.98, 122.55 178.98, 0 178.98 M0 178.98 C0 123.12, 0 67.27, 0 0 M0 178.98 C0 109.05, 0 39.13, 0 0" stroke="#846358" stroke-width="1" fill="none"></path></g><g stroke-linecap="round" transform="translate(282.6337194706598 38.59721943250656) rotate(0 136.24693593704183 89.48763247935887)"><path d="M0 0 L272.49 0 L272.49 178.98 L0 178.98" stroke="none" stroke-width="0" fill="#f3f0ff"></path><path d="M0 0 C101 0, 201.99 0, 272.49 0 M0 0 C56.63 0, 113.26 0, 272.49 0 M272.49 0 C272.49 64.83, 272.49 129.65, 272.49 178.98 M272.49 0 C272.49 38.17, 272.49 76.34, 272.49 178.98 M272.49 178.98 C169.59 178.98, 66.68 178.98, 0 178.98 M272.49 178.98 C198.99 178.98, 125.49 178.98, 0 178.98 M0 178.98 C0 113.71, 0 48.44, 0 0 M0 178.98 C0 135.39, 0 91.81, 0 0" stroke="#6741d9" stroke-width="1" fill="none"></path></g><g transform="translate(289.08327856827145 41.82199898131239) rotate(0 99.609375 12)"><text x="0" y="0" font-family="Cascadia, Segoe UI Emoji" font-size="20px" fill="#1e1e1e" text-anchor="start" style="white-space: pre;" direction="ltr" dominant-baseline="text-before-edge">mov     $0x1,%eax</text></g><g transform="translate(289.08327856827145 76.82199898131239) rotate(0 99.609375 12)"><text x="0" y="0" font-family="Cascadia, Segoe UI Emoji" font-size="20px" fill="#1e1e1e" text-anchor="start" style="white-space: pre;" direction="ltr" dominant-baseline="text-before-edge">mov     $0x1,%edi</text></g><g transform="translate(289.08327856827145 111.82199898131239) rotate(0 128.90625 12)"><text x="0" y="0" font-family="Cascadia, Segoe UI Emoji" font-size="20px" fill="#1e1e1e" text-anchor="start" style="white-space: pre;" direction="ltr" dominant-baseline="text-before-edge">movabs  $0x402000,%rsi</text></g><g transform="translate(289.08327856827145 146.8219989813124) rotate(0 105.46875 12)"><text x="0" y="0" font-family="Cascadia, Segoe UI Emoji" font-size="20px" fill="#1e1e1e" text-anchor="start" style="white-space: pre;" direction="ltr" dominant-baseline="text-before-edge">mov     $0x15,%edx</text></g><g transform="translate(289.08327856827145 181.8219989813124) rotate(0 41.015625 12)"><text x="0" y="0" font-family="Cascadia, Segoe UI Emoji" font-size="20px" fill="#1e1e1e" text-anchor="start" style="white-space: pre;" direction="ltr" dominant-baseline="text-before-edge">syscall</text></g><g transform="translate(287.4708887938682 229.0078455973553) rotate(0 99.609375 12)"><text x="0" y="0" font-family="Cascadia, Segoe UI Emoji" font-size="20px" fill="#1e1e1e" text-anchor="start" style="white-space: pre;" direction="ltr" dominant-baseline="text-before-edge">mov     $0x0,%eax</text></g><g transform="translate(287.4708887938682 264.0078455973553) rotate(0 99.609375 12)"><text x="0" y="0" font-family="Cascadia, Segoe UI Emoji" font-size="20px" fill="#1e1e1e" text-anchor="start" style="white-space: pre;" direction="ltr" dominant-baseline="text-before-edge">mov     $0x0,%edi</text></g><g transform="translate(287.4708887938682 299.0078455973553) rotate(0 128.90625 12)"><text x="0" y="0" font-family="Cascadia, Segoe UI Emoji" font-size="20px" fill="#1e1e1e" text-anchor="start" style="white-space: pre;" direction="ltr" dominant-baseline="text-before-edge">movabs  $0x402038,%rsi</text></g><g transform="translate(287.4708887938682 334.0078455973553) rotate(0 105.46875 12)"><text x="0" y="0" font-family="Cascadia, Segoe UI Emoji" font-size="20px" fill="#1e1e1e" text-anchor="start" style="white-space: pre;" direction="ltr" dominant-baseline="text-before-edge">mov     $0x10,%edx</text></g><g transform="translate(287.4708887938682 369.0078455973553) rotate(0 41.015625 12)"><text x="0" y="0" font-family="Cascadia, Segoe UI Emoji" font-size="20px" fill="#1e1e1e" text-anchor="start" style="white-space: pre;" direction="ltr" dominant-baseline="text-before-edge">syscall</text></g><g transform="translate(20.5894066941878 228.92826062979873) rotate(0 128.90625 12)"><text x="0" y="0" font-family="Cascadia, Segoe UI Emoji" font-size="20px" fill="#846358" text-anchor="start" style="white-space: pre;" direction="ltr" dominant-baseline="text-before-edge">Syscall numéro 0: read</text></g><g transform="translate(10 39.27865702466386) rotate(0 134.765625 12)"><text x="0" y="0" font-family="Cascadia, Segoe UI Emoji" font-size="20px" fill="#6741d9" text-anchor="start" style="white-space: pre;" direction="ltr" dominant-baseline="text-before-edge">Syscall numéro 1: write</text></g><g stroke-linecap="round" transform="translate(565.9799374892164 38) rotate(0 255 185)"><path d="M0 0 L510 0 L510 370 L0 370" stroke="none" stroke-width="0" fill="#f8f9fa"></path><path d="M0 0 C167.75 0, 335.5 0, 510 0 M0 0 C178.57 0, 357.15 0, 510 0 M510 0 C510 126.14, 510 252.27, 510 370 M510 0 C510 119.65, 510 239.3, 510 370 M510 370 C334.8 370, 159.61 370, 0 370 M510 370 C389.84 370, 269.68 370, 0 370 M0 370 C0 245.42, 0 120.83, 0 0 M0 370 C0 225.71, 0 81.43, 0 0" stroke="#1e1e1e" stroke-width="1" fill="none"></path></g><g transform="translate(570.9799374892164 43) rotate(0 228.515625 180)"><text x="0" y="0" font-family="Cascadia, Segoe UI Emoji" font-size="20px" fill="#1e1e1e" text-anchor="start" style="white-space: pre;" direction="ltr" dominant-baseline="text-before-edge">Numéro du syscall dans le registre %rax</text><text x="0" y="24" font-family="Cascadia, Segoe UI Emoji" font-size="20px" fill="#1e1e1e" text-anchor="start" style="white-space: pre;" direction="ltr" dominant-baseline="text-before-edge"></text><text x="0" y="48" font-family="Cascadia, Segoe UI Emoji" font-size="20px" fill="#1e1e1e" text-anchor="start" style="white-space: pre;" direction="ltr" dominant-baseline="text-before-edge">1er argument dans le registre %rdi</text><text x="0" y="72" font-family="Cascadia, Segoe UI Emoji" font-size="20px" fill="#1e1e1e" text-anchor="start" style="white-space: pre;" direction="ltr" dominant-baseline="text-before-edge"></text><text x="0" y="96" font-family="Cascadia, Segoe UI Emoji" font-size="20px" fill="#1e1e1e" text-anchor="start" style="white-space: pre;" direction="ltr" dominant-baseline="text-before-edge">2ème argument dans le registre %rsi</text><text x="0" y="120" font-family="Cascadia, Segoe UI Emoji" font-size="20px" fill="#1e1e1e" text-anchor="start" style="white-space: pre;" direction="ltr" dominant-baseline="text-before-edge"></text><text x="0" y="144" font-family="Cascadia, Segoe UI Emoji" font-size="20px" fill="#1e1e1e" text-anchor="start" style="white-space: pre;" direction="ltr" dominant-baseline="text-before-edge">3ème argument dans le registre %rdx</text><text x="0" y="168" font-family="Cascadia, Segoe UI Emoji" font-size="20px" fill="#1e1e1e" text-anchor="start" style="white-space: pre;" direction="ltr" dominant-baseline="text-before-edge"></text><text x="0" y="192" font-family="Cascadia, Segoe UI Emoji" font-size="20px" fill="#1e1e1e" text-anchor="start" style="white-space: pre;" direction="ltr" dominant-baseline="text-before-edge">4ème argument dans le registre %rcx</text><text x="0" y="216" font-family="Cascadia, Segoe UI Emoji" font-size="20px" fill="#1e1e1e" text-anchor="start" style="white-space: pre;" direction="ltr" dominant-baseline="text-before-edge"></text><text x="0" y="240" font-family="Cascadia, Segoe UI Emoji" font-size="20px" fill="#1e1e1e" text-anchor="start" style="white-space: pre;" direction="ltr" dominant-baseline="text-before-edge">5ème argument dans le registre %r8</text><text x="0" y="264" font-family="Cascadia, Segoe UI Emoji" font-size="20px" fill="#1e1e1e" text-anchor="start" style="white-space: pre;" direction="ltr" dominant-baseline="text-before-edge"></text><text x="0" y="288" font-family="Cascadia, Segoe UI Emoji" font-size="20px" fill="#1e1e1e" text-anchor="start" style="white-space: pre;" direction="ltr" dominant-baseline="text-before-edge">6ème argument dans le registre %r9</text><text x="0" y="312" font-family="Cascadia, Segoe UI Emoji" font-size="20px" fill="#1e1e1e" text-anchor="start" style="white-space: pre;" direction="ltr" dominant-baseline="text-before-edge"></text><text x="0" y="336" font-family="Cascadia, Segoe UI Emoji" font-size="20px" fill="#1e1e1e" text-anchor="start" style="white-space: pre;" direction="ltr" dominant-baseline="text-before-edge">syscall</text></g><g transform="translate(776.9799374892164 10) rotate(0 35.15625 12)"><text x="0" y="0" font-family="Cascadia, Segoe UI Emoji" font-size="20px" fill="#1e1e1e" text-anchor="start" style="white-space: pre;" direction="ltr" dominant-baseline="text-before-edge">Modèle</text></g><g stroke-linecap="round" transform="translate(649.9799374892164 419) rotate(0 213 29)"><path d="M0 0 L426 0 L426 58 L0 58" stroke="none" stroke-width="0" fill="#fff5f5"></path><path d="M0 0 C124.34 0, 248.68 0, 426 0 M0 0 C139.12 0, 278.24 0, 426 0 M426 0 C426 19.39, 426 38.78, 426 58 M426 0 C426 11.84, 426 23.69, 426 58 M426 58 C270.34 58, 114.68 58, 0 58 M426 58 C299.06 58, 172.12 58, 0 58 M0 58 C0 38, 0 17.99, 0 0 M0 58 C0 36.63, 0 15.27, 0 0" stroke="#e03131" stroke-width="1" fill="none"></path></g><g transform="translate(654.9799374892164 424) rotate(0 205.078125 24)"><text x="0" y="0" font-family="Cascadia, Segoe UI Emoji" font-size="20px" fill="#e03131" text-anchor="start" style="white-space: pre;" direction="ltr" dominant-baseline="text-before-edge">Un syscall ne peut pas avoir plus 6</text><text x="0" y="24" font-family="Cascadia, Segoe UI Emoji" font-size="20px" fill="#e03131" text-anchor="start" style="white-space: pre;" direction="ltr" dominant-baseline="text-before-edge">arguments (i.e. aucun en pile).</text></g><g stroke-linecap="round"><g transform="translate(574.3503314254185 472.2925666701774) rotate(0 29.141244828581648 -26.739811225988603)" fill-rule="evenodd"><path d="M0 0 L58.28 0 L28.98 -53.48 L0 0" stroke="none" stroke-width="0" fill="#e03131" fill-rule="evenodd"></path><path d="M0 0 C13.96 0, 27.92 0, 58.28 0 M0 0 C16.72 0, 33.43 0, 58.28 0 M58.28 0 C49.5 -16.03, 40.72 -32.06, 28.98 -53.48 M58.28 0 C50.58 -14.06, 42.88 -28.12, 28.98 -53.48 M28.98 -53.48 C18.57 -34.26, 8.15 -15.04, 0 0 M28.98 -53.48 C19.26 -35.53, 9.53 -17.59, 0 0 M0 0 C0 0, 0 0, 0 0 M0 0 C0 0, 0 0, 0 0" stroke="#e03131" stroke-width="4" fill="none"></path></g></g><mask></mask><g transform="translate(588.7843638202221 419.70978113577587) rotate(0 14.8040771484375 30.329534845188164)"><text x="0" y="0" font-family="Cascadia, Segoe UI Emoji" font-size="50.54922474198026px" fill="#fff5f5" text-anchor="start" style="white-space: pre;" direction="ltr" dominant-baseline="text-before-edge">!</text></g></svg>